<svg width="369" height="400" xmlns="http://www.w3.org/2000/svg">
 <!-- Created with Method Draw - http://github.com/duopixel/Method-Draw/ -->
 <g>
  <title>background</title>
  <rect fill="none" id="canvas_background" height="402" width="371" y="-1" x="-1"/>
 </g>
 <g stroke="null">
  <title>Layer 1</title>
  <metadata id="svg_103">image/svg+xml</metadata>
  <defs>
   <clipPath id="svg_57" clipPathUnits="userSpaceOnUse">
    <path id="svg_102" d="m21261.271493,-13232.676483l800,0l0,-1000l-800,0l0,1000z" stroke="null"/>
   </clipPath>
  </defs>
  <g id="svg_105" stroke="null">
   <g transform="matrix(0.7609260404888403,0,0,-0.786614618010215,-16295.648625650749,-10585.332248031784) " id="svg_54" stroke="null">
    <g id="svg_55" stroke="null">
     <g clip-path="url(#svg_57)" id="svg_56" stroke="null">
      <path id="svg_101" d="m21730.640493,-13590.844483l-8.265,9.011l13.986,4.006c14.306,3.672 30.838,19.026 30.838,29.039c0,7.677 22.254,31.376 39.738,41.724c8.584,5.34 16.215,9.68 16.531,9.68c0.319,0 -2.224,-5.341 -5.722,-11.349c-3.496,-6.342 -6.993,-17.357 -7.948,-24.367c-3.814,-38.719 -13.033,-56.743 -34.334,-67.424c-11.127,-6.009 -14.941,-6.343 -24.797,-3.005c-6.675,2.003 -15.578,7.678 -20.027,12.685" fill-rule="nonzero" fill="#f37637"/>
      <path id="svg_100" d="m21726.824493,-13768.754483c-1.907,-2.336 -10.49,3.672 -10.49,7.344c0,1.336 5.085,8.011 11.126,14.687c6.04,6.676 11.127,13.684 11.127,15.688c0,1.668 4.768,5.674 10.491,8.678c5.404,3.004 12.716,8.345 16.213,12.016c6.677,7.677 8.584,6.676 6.041,-3.337c-0.954,-4.005 -2.862,-7.343 -4.452,-7.343c-1.589,0 -2.861,-2.004 -2.861,-4.674c0,-4.672 -20.346,-25.368 -24.797,-25.368c-1.271,0 -4.133,-3.004 -6.357,-7.009c-3.18,-5.34 -3.18,-8.012 -0.319,-11.684c2.543,-3.336 2.543,-4.672 0,-4.672c-1.906,0 -3.496,1.668 -3.496,4.006c0,2.002 -0.955,2.67 -2.226,1.668" fill-rule="nonzero" fill="#f37637"/>
      <path id="svg_99" d="m21722.375493,-13581.833483l8.265,-9.011c4.449,-5.007 13.352,-10.682 20.027,-12.685c9.856,-3.338 13.67,-3.004 24.797,3.005c21.301,10.681 30.52,28.705 34.334,67.424c0.955,7.01 4.452,18.025 7.948,24.367c3.498,6.008 6.041,11.349 5.722,11.349c-0.316,0 -7.947,-4.34 -16.531,-9.68c-17.484,-10.348 -39.738,-34.047 -39.738,-41.724c0,-10.013 -16.532,-25.367 -30.838,-29.039l-13.986,-4.006zm-8.903,6.009c9.537,1.335 20.664,4.005 25.115,5.674c11.127,4.339 22.254,16.022 22.254,23.365c0,13.352 28.293,39.053 64.535,58.079c19.075,10.013 35.606,17.357 36.559,16.356c1.908,-2.003 2.861,-1.336 -15.894,-14.353c-17.485,-12.684 -26.069,-29.373 -31.155,-63.086c-4.451,-29.04 -14.943,-46.062 -35.607,-57.411c-18.121,-10.348 -33.063,-7.678 -49.912,8.011c-6.676,6.342 -16.848,13.684 -22.571,16.355l-10.492,4.673l17.168,2.337z" fill-rule="nonzero" fill="#f37637"/>
      <path id="svg_98" d="m21716.334493,-13761.410483c0,-3.672 8.583,-9.68 10.49,-7.344c1.271,1.002 2.226,0.334 2.226,-1.668c0,-2.338 1.59,-4.006 3.496,-4.006c2.543,0 2.543,1.336 0,4.672c-2.861,3.672 -2.861,6.344 0.319,11.684c2.224,4.005 5.086,7.009 6.357,7.009c4.451,0 24.797,20.695 24.797,25.367c0,2.67 1.272,4.674 2.861,4.674c1.59,0 3.498,3.338 4.452,7.343c2.543,10.013 0.636,11.015 -6.041,3.337c-3.497,-3.67 -10.809,-9.012 -16.213,-12.016c-5.723,-3.004 -10.491,-7.01 -10.491,-8.678c0,-2.004 -5.087,-9.011 -11.127,-15.687c-6.041,-6.676 -11.126,-13.351 -11.126,-14.687m36.558,-60.082c0,23.031 -4.767,30.041 -27.658,42.39c-19.074,10.014 -19.391,17.024 -2.543,37.051c6.994,8.346 12.717,18.026 12.717,21.698c0,3.67 0.953,5.673 2.543,4.672c1.271,-0.668 6.994,0.668 12.716,3.338c10.809,4.672 19.393,20.027 20.03,35.381c0.316,7.009 0.635,6.676 4.449,-2.337c6.041,-13.351 6.041,-33.044 0,-44.726c-4.768,-9.68 -32.107,-37.051 -36.877,-37.051c-5.723,0 -2.543,-5.342 6.357,-11.016c12.399,-7.676 22.573,-25.367 22.573,-39.053c0,-9.679 -8.584,-30.041 -12.717,-30.041c-0.953,0 -1.59,9.012 -1.59,19.694" fill-rule="nonzero" fill="#f37637"/>
      <path id="svg_97" d="m21661.971493,-13811.145483c-1.59,0 -2.225,1.668 -1.271,3.338c0.953,2.002 2.542,3.338 3.497,3.338c0.635,0 1.271,-1.336 1.271,-3.338c0,-1.67 -1.59,-3.338 -3.497,-3.338" fill-rule="nonzero" fill="#f37637"/>
      <path id="svg_96" d="m21639.400493,-13826.832483c4.768,-1.67 14.941,-2.67 22.89,-2.338c7.946,0 18.754,1.336 23.842,2.672c8.584,2.002 8.901,2.002 4.768,-2.672c-2.861,-3.004 -11.443,-6.342 -19.074,-7.342c-15.259,-2.004 -41.328,3.338 -41.328,9.01c0,1.67 3.497,2.004 8.902,0.67" fill-rule="nonzero" fill="#f37637"/>
      <path id="svg_95" d="m21643.533493,-13871.895483c-0.318,2.004 -3.497,4.006 -6.994,4.006c-5.723,0 -6.041,1.002 -2.862,4.674c2.544,3.338 9.856,5.006 22.572,5.006l18.756,-0.334l-6.359,-12.684c-7.311,-15.021 -12.715,-47.73 -9.218,-54.074c3.814,-6.008 3.497,-10.014 -0.318,-7.678c-7.63,5.008 -14.306,31.711 -15.577,61.084" fill-rule="nonzero" fill="#f37637"/>
      <path id="svg_94" d="m21662.290493,-13829.170483c-7.949,-0.332 -18.122,0.668 -22.89,2.338c-5.405,1.334 -8.902,1 -8.902,-0.67c0,-5.672 26.069,-11.014 41.328,-9.01c7.631,1 16.213,4.338 19.074,7.342c4.133,4.674 3.816,4.674 -4.768,2.672c-5.088,-1.336 -15.896,-2.672 -23.842,-2.672m36.876,0c-3.178,-13.018 -30.52,-19.026 -58.812,-13.352c-11.127,2.338 -21.301,15.022 -18.439,22.7c1.589,4.003 4.45,4.003 20.664,-0.334c16.849,-4.34 21.299,-4.34 37.831,0c19.392,5.005 21.935,3.669 18.756,-9.014" fill-rule="nonzero" fill="#f37637"/>
      <path id="svg_93" d="m21633.677493,-13863.215483c-3.179,-3.672 -2.861,-4.674 2.862,-4.674c3.497,0 6.676,-2.002 6.994,-4.006c1.271,-29.373 7.947,-56.076 15.577,-61.084c3.815,-2.336 4.132,1.67 0.318,7.678c-3.497,6.344 1.907,39.053 9.218,54.074l6.359,12.684l-18.756,0.334c-12.716,0 -20.028,-1.668 -22.572,-5.006m-12.716,-38.053c-6.358,10.348 -3.497,29.373 6.04,40.723c8.902,10.68 9.538,11.014 36.241,11.014c23.843,0 26.705,-0.668 22.89,-5.006c-2.226,-2.67 -7.312,-11.682 -11.127,-20.028c-12.08,-24.699 -10.173,-51.736 5.723,-84.113c0.635,-1.67 -0.955,-2.672 -3.498,-2.672c-6.357,0 -27.339,24.701 -33.062,39.721c-2.861,6.676 -5.086,20.695 -5.404,31.043c0,10.68 -0.636,19.359 -0.954,19.359c-4.451,0 -13.67,-17.023 -13.67,-24.699c0,-8.012 -0.953,-9.014 -3.179,-5.342" fill-rule="nonzero" fill="#f37637"/>
      <path id="svg_92" d="m21461.370493,-13645.252483c15.26,11.014 47.369,20.361 65.808,19.026c37.195,-2.67 57.859,-1.335 68.35,4.006c11.763,6.341 35.924,24.7 37.514,29.039c0.635,1.335 13.034,2.337 27.658,2.337c25.432,0 26.704,-0.334 41.645,-12.685c25.115,-20.36 36.242,-24.7 61.674,-24.032c35.607,1.335 46.416,1.001 61.357,-1.002c16.532,-2.002 38.149,-13.685 48.323,-26.035c6.357,-7.344 6.357,-7.344 0,-4.673c-3.496,1.669 -17.803,7.01 -31.791,12.349c-32.11,12.017 -54.998,11.349 -81.067,-2.337c-43.236,-23.03 -54.681,-37.383 -47.687,-60.415c3.498,-11.014 3.18,-13.018 -1.59,-16.689c-10.172,-7.676 -20.664,-26.036 -20.664,-35.381c0,-5.34 2.226,-14.354 5.088,-19.694c4.767,-10.347 4.133,-19.695 -1.59,-19.695c-1.59,0 -2.543,2.338 -2.227,5.342c0.637,10.013 -9.853,13.685 -20.345,7.344c-9.219,-5.676 -19.074,-5.006 -19.074,1.001c0,5.006 -12.716,3.338 -17.803,-2.003c-2.861,-2.67 -3.815,-6.342 -2.861,-8.344c0.954,-1.67 0.318,-3.338 -1.59,-3.338c-6.04,0 -6.994,9.012 -1.907,19.693c8.583,17.358 6.677,30.375 -7.312,46.397c-11.127,12.684 -12.081,15.354 -9.855,24.032c4.133,14.687 -1.908,32.044 -13.671,41.39c-5.722,4.34 -20.664,13.352 -33.697,20.027c-18.121,9.012 -27.659,12.016 -39.74,11.683c-13.67,0 -51.183,-11.015 -72.483,-21.029c-11.127,-5.34 -5.405,3.338 9.537,13.686m240.053,22.263c-6.898,15.355 -41.169,23.399 -57.382,13.519c-16.468,-10.248 -19.646,-20.127 -9.028,-28.171c9.569,-6.944 15.927,-23.066 21.777,-53.073c3.464,-19.393 5.054,-23.065 5.594,-15.387c0.128,1.535 0.223,3.103 0.255,4.706l2.987,-0.068c-0.031,-1.101 -0.062,-2.169 -0.062,-3.171c0.254,-6.942 0.795,-6.575 3.719,2.938c1.843,6.208 4.259,17.19 5.308,25.269c1.336,10.247 5.565,18.658 15.42,31.842c4.514,5.975 8.266,12.117 10.172,16.389c1.145,2.504 1.621,4.406 1.24,5.207" fill-rule="nonzero" fill="#f37637"/>
      <path id="svg_91" d="m21605.065493,-13762.078483c0,-5.674 -6.358,-12.35 -12.08,-12.35c-3.815,0 -3.815,1.002 -0.318,5.34c3.497,4.674 3.179,6.676 -4.451,13.351c-4.768,4.006 -10.491,9.014 -12.716,10.348c-8.902,6.008 -21.3,25.368 -21.3,33.38l0,8.678l6.676,-9.012c3.497,-4.673 8.901,-8.678 11.763,-9.012c6.04,-0.334 32.426,-33.714 32.426,-40.723" fill-rule="nonzero" fill="#f37637"/>
      <path id="svg_90" d="m21503.334493,-13500.388483c0,4.338 10.173,-1.669 30.52,-17.357c11.444,-9.013 18.438,-17.691 24.479,-31.043c6.358,-14.019 11.444,-20.027 20.982,-25.367c6.994,-3.672 14.941,-6.676 17.803,-6.676c14.942,0 -12.399,-22.698 -28.612,-23.7c-23.208,-1.335 -43.554,19.026 -48.958,49.401c-5.723,29.707 -10.491,47.732 -13.353,49.735c-1.589,1.001 -2.861,3.338 -2.861,5.007" fill-rule="nonzero" fill="#f37637"/>
      <path id="svg_89" d="m21579.315493,-13772.426483c9.855,6.008 12.716,11.35 6.676,11.35c-5.087,0 -31.791,27.037 -36.878,37.051c-5.404,11.348 -5.722,28.371 -0.635,43.391l3.814,11.349l1.908,-11.683c1.272,-6.341 3.815,-15.02 6.04,-19.359c4.133,-8.011 21.936,-18.024 26.386,-15.354c1.59,1.001 2.544,-1.002 2.544,-4.673c0,-3.672 5.722,-13.351 12.716,-21.697c16.849,-20.027 16.531,-27.037 -2.225,-37.051c-23.207,-12.349 -27.976,-19.359 -27.976,-42.39c0,-10.682 -0.636,-19.694 -1.59,-19.694c-0.953,0 -4.133,4.338 -7.312,9.68c-11.126,19.693 -3.496,46.73 16.532,59.08m-3.815,27.037c2.225,-1.334 7.948,-6.342 12.716,-10.348c7.63,-6.675 7.948,-8.677 4.451,-13.351c-3.497,-4.338 -3.497,-5.34 0.318,-5.34c5.722,0 12.08,6.676 12.08,12.35c0,7.009 -26.386,40.389 -32.426,40.723c-2.862,0.334 -8.266,4.339 -11.763,9.012l-6.676,9.012l0,-8.678c0,-8.012 12.398,-27.372 21.3,-33.38" fill-rule="nonzero" fill="#f37637"/>
      <path id="svg_88" d="m21519.548493,-13555.130483c5.404,-30.375 25.75,-50.735 48.958,-49.401c16.213,1.002 43.554,23.7 28.612,23.7c-2.862,0 -10.809,3.004 -17.803,6.676c-9.538,5.34 -14.624,11.348 -20.982,25.367c-6.041,13.352 -13.035,22.03 -24.479,31.043c-20.347,15.688 -30.52,21.695 -30.52,17.357c0,-1.669 1.272,-4.006 2.861,-5.007c2.862,-2.003 7.63,-20.028 13.353,-49.735m31.155,-54.073c-20.029,9.68 -33.381,27.704 -37.514,50.735c-8.901,49.735 -10.49,52.405 -44.825,81.111c-13.034,10.681 -3.497,7.677 30.201,-10.014c37.832,-19.693 60.722,-39.721 66.762,-58.413c5.086,-16.355 15.259,-23.365 43.236,-29.707c11.126,-2.67 17.802,-4.673 14.941,-5.007c-2.861,-0.333 -12.716,-7.009 -21.936,-15.354c-20.346,-18.025 -33.38,-21.362 -50.865,-13.351" fill-rule="nonzero" fill="#f37637"/>
      <path id="svg_87" d="m21565.327493,-13658.603483c-18.439,10.346 -25.433,12.349 -41.328,12.349c-21.936,-0.334 -51.184,-9.68 -80.432,-26.035c-10.809,-6.342 -19.71,-10.013 -19.71,-8.679c0,5.007 17.803,29.708 27.658,38.052c22.571,19.694 36.56,23.698 86.789,24.033c25.433,0 49.594,1.668 54.045,3.671c4.451,2.003 14.942,9.013 23.526,16.023c8.265,6.676 18.438,13.351 21.935,15.02c9.538,4.005 38.149,4.005 48.004,0.333c4.133,-2.002 14.623,-8.677 22.889,-15.687c8.584,-6.676 19.076,-13.686 23.525,-15.689c4.451,-2.002 28.613,-3.672 54.045,-3.672c50.23,-0.334 64.219,-4.338 86.789,-24.032c9.855,-8.344 27.658,-33.045 27.658,-38.052c0,-1.334 -8.9,2.337 -19.709,8.679c-48.959,27.704 -86.789,33.045 -116.992,16.689c-42.281,-23.031 -49.275,-32.043 -43.553,-54.742c3.496,-13.35 3.18,-14.018 -9.855,-28.705c-14.623,-16.356 -15.895,-23.699 -8.266,-39.053c9.537,-19.693 3.815,-27.371 -26.386,-36.717c-10.809,-3.338 -16.531,-3.338 -27.022,0c-30.52,9.346 -36.242,17.024 -26.705,36.717c7.63,15.354 6.359,22.697 -8.265,39.053c-13.034,15.021 -13.352,15.355 -9.855,29.04c5.722,22.03 -0.636,30.708 -38.785,51.404m-38.149,32.377c-18.439,1.335 -50.548,-8.011 -65.808,-19.026c-14.942,-10.348 -20.664,-19.026 -9.537,-13.685c21.3,10.013 58.813,21.028 72.483,21.028c12.081,0.334 21.618,-2.67 39.739,-11.683c13.034,-6.675 27.976,-15.687 33.698,-20.027c11.763,-9.346 17.804,-26.703 13.671,-41.39c-2.226,-8.678 -1.272,-11.348 9.855,-24.032c13.988,-16.022 15.895,-29.039 7.312,-46.397c-5.087,-10.681 -4.133,-19.693 1.907,-19.693c1.908,0 2.544,1.668 1.59,3.338c-0.954,2.002 0,5.674 2.861,8.344c5.087,5.341 17.803,7.009 17.803,2.003c0,-6.007 9.855,-6.675 19.074,-1.001c10.492,6.341 20.982,2.669 20.345,-7.344c-0.316,-3.004 0.637,-5.34 2.227,-5.34c5.723,0 6.357,9.346 1.59,19.693c-2.862,5.34 -5.088,14.354 -5.088,19.694c0,9.345 10.492,27.705 20.664,35.381c4.77,3.672 5.088,5.676 1.59,16.689c-6.994,23.033 4.451,37.385 47.687,60.416c26.069,13.686 48.957,14.353 81.067,2.337c13.988,-5.34 28.295,-10.681 31.791,-12.35c6.357,-2.67 6.357,-2.67 0,4.673c-10.174,12.35 -31.791,24.033 -48.323,26.035c-14.941,2.003 -25.75,2.337 -61.357,1.002c-25.432,-0.668 -36.559,3.672 -61.674,24.033c-14.941,12.35 -16.213,12.684 -41.645,12.684c-14.624,0 -27.023,-1.001 -27.658,-2.336c-1.59,-4.34 -25.751,-22.699 -37.514,-29.04c-10.491,-5.342 -31.155,-6.676 -68.35,-4.006m128.117,-176.907c1.272,1.334 -0.636,4.672 -3.815,7.342c-7.312,5.342 -14.624,6.01 -14.624,1.336c0,-4.674 15.26,-11.684 18.439,-8.678m8.902,-1.336c-0.955,0 -2.544,-1.336 -3.497,-3.338c-0.954,-1.67 -0.319,-3.338 1.271,-3.338c1.907,0 3.497,1.668 3.497,3.338c0,2.002 -0.636,3.338 -1.271,3.338m5.086,1.336c3.179,-3.006 18.439,4.004 18.439,8.676c0,1.67 -1.908,3.338 -4.133,3.338c-6.041,0 -16.849,-9.01 -14.306,-12.014" fill-rule="nonzero" fill="#f37637"/>
      <path id="svg_86" d="m21468.364493,-13477.357483c34.335,-28.706 35.924,-31.376 44.825,-81.111c4.133,-23.031 17.485,-41.055 37.514,-50.735c17.485,-8.011 30.519,-4.673 50.865,13.352c9.22,8.344 19.075,15.02 21.936,15.353c2.861,0.334 -3.815,2.337 -14.941,5.007c-27.977,6.342 -38.15,13.352 -43.236,29.707c-6.04,18.692 -28.93,38.72 -66.762,58.413c-33.698,17.691 -43.235,20.695 -30.201,10.014z" stroke-miterlimit="4" fill="none" stroke="#f37637"/>
      <path id="svg_85" d="m21533.854493,-13517.745483c11.444,-9.013 18.438,-17.691 24.479,-31.043c6.358,-14.019 11.444,-20.027 20.982,-25.367c6.994,-3.672 14.941,-6.676 17.803,-6.676c14.942,0 -12.399,-22.698 -28.612,-23.7c-23.208,-1.335 -43.554,19.026 -48.958,49.401c-5.723,29.707 -10.491,47.732 -13.353,49.735c-1.589,1.001 -2.861,3.338 -2.861,5.007c0,4.338 10.173,-1.669 30.52,-17.357z" stroke-miterlimit="4" fill="none" stroke="#f37637"/>
      <path id="svg_84" d="m21825.376493,-13488.706483c-36.242,-19.026 -64.535,-44.727 -64.535,-58.079c0,-7.343 -11.127,-19.026 -22.254,-23.365c-4.451,-1.669 -15.578,-4.339 -25.115,-5.674l-17.168,-2.337l10.492,-4.673c5.723,-2.671 15.895,-10.013 22.571,-16.355c16.849,-15.689 31.791,-18.359 49.912,-8.011c20.664,11.349 31.156,28.371 35.607,57.411c5.086,33.713 13.67,50.402 31.155,63.086c18.755,13.017 17.802,12.35 15.894,14.353c-0.953,1.001 -17.484,-6.343 -36.559,-16.356z" stroke-miterlimit="4" fill="none" stroke="#f37637"/>
      <path id="svg_83" d="m21817.746493,-13508.733483c-3.496,-6.342 -6.993,-17.357 -7.948,-24.367c-3.814,-38.719 -13.033,-56.743 -34.334,-67.424c-11.127,-6.009 -14.941,-6.343 -24.797,-3.005c-6.675,2.003 -15.578,7.677 -20.027,12.685l-8.265,9.011l13.986,4.006c14.306,3.672 30.838,19.026 30.838,29.039c0,7.677 22.254,31.376 39.738,41.724c8.584,5.34 16.215,9.68 16.531,9.68c0.319,0 -2.224,-5.341 -5.722,-11.349z" stroke-miterlimit="4" fill="none" stroke="#f37637"/>
      <path id="svg_82" d="m21637.810493,-13584.169483c-3.497,-1.669 -13.67,-8.344 -21.935,-15.02c-8.584,-7.01 -19.075,-14.02 -23.526,-16.023c-4.451,-2.002 -28.612,-3.671 -54.045,-3.671c-50.229,-0.335 -64.218,-4.339 -86.789,-24.033c-9.855,-8.344 -27.658,-33.045 -27.658,-38.052c0,-1.334 8.901,2.337 19.71,8.679c29.248,16.356 58.496,25.701 80.432,26.035c15.895,0 22.889,-2.003 41.328,-12.349c38.149,-20.696 44.507,-29.374 38.785,-51.404c-3.497,-13.685 -3.179,-14.019 9.855,-29.04c14.624,-16.356 15.895,-23.699 8.265,-39.053c-9.537,-19.695 -3.815,-27.371 26.705,-36.717c10.491,-3.338 16.213,-3.338 27.022,0c30.201,9.346 35.923,17.022 26.386,36.717c-7.629,15.354 -6.357,22.697 8.266,39.053c13.035,14.687 13.351,15.355 9.855,28.705c-5.722,22.699 1.272,31.711 43.553,54.742c30.203,16.356 68.033,11.015 116.992,-16.689c10.809,-6.342 19.709,-10.013 19.709,-8.679c0,5.007 -17.803,29.708 -27.658,38.052c-22.57,19.694 -36.559,23.698 -86.789,24.033c-25.432,0 -49.594,1.668 -54.045,3.671c-4.449,2.003 -14.941,9.013 -23.525,15.689c-8.266,7.01 -18.756,13.685 -22.889,15.687c-9.855,3.672 -38.466,3.672 -48.004,-0.333z" stroke-miterlimit="4" fill="none" stroke="#f37637"/>
      <path id="svg_81" d="m21702.345493,-13603.529483c25.115,-20.36 36.242,-24.7 61.674,-24.033c35.607,1.336 46.416,1.002 61.357,-1.001c16.532,-2.003 38.149,-13.686 48.323,-26.035c6.357,-7.344 6.357,-7.344 0,-4.673c-3.496,1.669 -17.803,7.009 -31.791,12.349c-32.11,12.017 -54.998,11.349 -81.067,-2.337c-43.236,-23.031 -54.681,-37.383 -47.687,-60.415c3.498,-11.014 3.18,-13.018 -1.59,-16.69c-10.172,-7.675 -20.664,-26.035 -20.664,-35.38c0,-5.34 2.226,-14.354 5.088,-19.694c4.767,-10.347 4.133,-19.695 -1.59,-19.695c-1.59,0 -2.543,2.338 -2.227,5.342c0.637,10.013 -9.853,13.685 -20.345,7.344c-9.219,-5.676 -19.074,-5.006 -19.074,1.001c0,5.006 -12.716,3.338 -17.803,-2.003c-2.861,-2.67 -3.815,-6.342 -2.861,-8.344c0.954,-1.67 0.318,-3.338 -1.59,-3.338c-6.04,0 -6.994,9.012 -1.907,19.693c8.583,17.358 6.676,30.375 -7.312,46.397c-11.127,12.683 -12.081,15.353 -9.855,24.032c4.133,14.687 -1.908,32.044 -13.671,41.39c-5.722,4.339 -20.664,13.352 -33.698,20.027c-18.121,9.012 -27.658,12.016 -39.739,11.683c-13.67,0 -51.183,-11.016 -72.483,-21.029c-11.127,-5.34 -5.405,3.338 9.537,13.685c15.26,11.015 47.369,20.362 65.808,19.027c37.195,-2.671 57.859,-1.336 68.35,4.005c11.763,6.341 35.924,24.7 37.514,29.04c0.635,1.335 13.034,2.336 27.658,2.336c25.432,0.001 26.704,-0.333 41.645,-12.684z" stroke-miterlimit="4" fill="none" stroke="#f37637"/>
      <path id="svg_80" d="m21651.480493,-13795.791483c3.179,-2.67 5.087,-6.008 3.815,-7.342c-3.179,-3.006 -18.439,4.004 -18.439,8.676c0,4.676 7.312,4.008 14.624,-1.334z" stroke-miterlimit="4" fill="none" stroke="#f37637"/>
      <path id="svg_79" d="m21687.722493,-13794.457483c0,-4.672 -15.26,-11.682 -18.439,-8.676c-2.543,3.002 8.265,12.014 14.306,12.014c2.225,0 4.133,-1.668 4.133,-3.338z" stroke-miterlimit="4" fill="none" stroke="#f37637"/>
      <path id="svg_78" d="m21665.468493,-13807.807483c0,-1.67 -1.59,-3.338 -3.497,-3.338c-1.59,0 -2.225,1.668 -1.271,3.338c0.953,2.002 2.542,3.338 3.497,3.338c0.635,0 1.271,-1.336 1.271,-3.338z" stroke-miterlimit="4" fill="none" stroke="#f37637"/>
      <path id="svg_77" d="m21548.478493,-13680.634483c-5.087,-15.02 -4.769,-32.043 0.635,-43.391c5.087,-10.014 31.791,-37.051 36.878,-37.051c6.04,0 3.179,-5.342 -6.676,-11.35c-20.028,-12.35 -27.658,-39.387 -16.532,-59.08c3.179,-5.34 6.359,-9.68 7.312,-9.68c0.954,0 1.59,9.012 1.59,19.694c0,23.031 4.769,30.041 27.976,42.39c18.756,10.014 19.074,17.024 2.225,37.051c-6.994,8.346 -12.716,18.026 -12.716,21.698c0,3.67 -0.954,5.673 -2.544,4.672c-4.45,-2.67 -22.253,7.343 -26.386,15.354c-2.225,4.339 -4.768,13.018 -6.04,19.359l-1.908,11.683l-3.814,-11.349z" stroke-miterlimit="4" fill="none" stroke="#f37637"/>
      <path id="svg_76" d="m21572.639493,-13721.355483c6.04,-0.334 32.426,-33.714 32.426,-40.723c0,-5.674 -6.358,-12.35 -12.08,-12.35c-3.815,0 -3.815,1.002 -0.318,5.34c3.497,4.674 3.179,6.676 -4.451,13.351c-4.768,4.006 -10.491,9.014 -12.716,10.348c-8.902,6.008 -21.3,25.368 -21.3,33.38l0,8.678l6.676,-9.012c3.497,-4.673 8.901,-8.678 11.763,-9.012z" stroke-miterlimit="4" fill="none" stroke="#f37637"/>
      <path id="svg_75" d="m21770.697493,-13676.962483c-0.637,-15.354 -9.221,-30.709 -20.03,-35.381c-5.722,-2.67 -11.445,-4.006 -12.716,-3.338c-1.59,1.001 -2.543,-1.002 -2.543,-4.672c0,-3.672 -5.723,-13.352 -12.717,-21.698c-16.848,-20.027 -16.531,-27.037 2.543,-37.051c22.891,-12.349 27.658,-19.359 27.658,-42.39c0,-10.682 0.637,-19.694 1.59,-19.694c4.133,0 12.717,20.362 12.717,30.041c0,13.684 -10.174,31.377 -22.573,39.053c-8.9,5.674 -12.08,11.016 -6.357,11.016c4.77,0 32.109,27.371 36.877,37.05c6.041,11.683 6.041,31.376 0,44.727c-3.814,9.012 -4.133,9.346 -4.449,2.337z" stroke-miterlimit="4" fill="none" stroke="#f37637"/>
      <path id="svg_74" d="m21771.332493,-13713.678483c-0.954,-4.005 -2.862,-7.343 -4.452,-7.343c-1.589,0 -2.861,-2.004 -2.861,-4.674c0,-4.672 -20.346,-25.368 -24.797,-25.368c-1.271,0 -4.133,-3.004 -6.357,-7.009c-3.18,-5.34 -3.18,-8.012 -0.319,-11.684c2.543,-3.336 2.543,-4.672 0,-4.672c-1.906,0 -3.496,1.668 -3.496,4.006c0,2.002 -0.955,2.67 -2.226,1.668c-1.907,-2.336 -10.49,3.672 -10.49,7.344c0,1.336 5.085,8.011 11.126,14.687c6.04,6.676 11.127,13.684 11.127,15.688c0,1.668 4.768,5.674 10.491,8.678c5.404,3.004 12.716,8.345 16.213,12.016c6.677,7.677 8.584,6.676 6.041,-3.337z" stroke-miterlimit="4" fill="none" stroke="#f37637"/>
      <path id="svg_73" d="m21621.915493,-13819.824483c-2.862,-7.678 7.312,-20.362 18.439,-22.698c28.292,-5.674 55.634,0.334 58.812,13.352c3.179,12.683 0.636,14.019 -18.756,9.012c-16.532,-4.338 -20.982,-4.338 -37.831,0c-16.214,4.339 -19.075,4.339 -20.664,0.334z" stroke-miterlimit="4" fill="none" stroke="#f37637"/>
      <path id="svg_72" d="m21662.290493,-13829.170483c7.946,0 18.754,1.336 23.842,2.672c8.584,2.002 8.901,2.002 4.768,-2.672c-2.861,-3.004 -11.443,-6.342 -19.074,-7.342c-15.259,-2.004 -41.328,3.338 -41.328,9.01c0,1.67 3.497,2.004 8.902,0.67c4.768,-1.67 14.941,-2.672 22.89,-2.338z" stroke-miterlimit="4" fill="none" stroke="#f37637"/>
      <path id="svg_71" d="m21627.001493,-13860.545483c-9.537,-11.35 -12.398,-30.375 -6.04,-40.723c2.226,-3.672 3.179,-2.67 3.179,5.34c0,7.678 9.219,24.701 13.67,24.701c0.318,0 0.954,-8.679 0.954,-19.361c0.318,-10.346 2.543,-24.365 5.404,-31.041c5.723,-15.022 26.705,-39.721 33.062,-39.721c2.543,0 4.133,1.002 3.498,2.67c-15.896,32.377 -17.803,59.414 -5.723,84.115c3.815,8.344 8.901,17.356 11.127,20.028c3.815,4.338 0.953,5.006 -22.89,5.006c-26.703,0 -27.339,-0.334 -36.241,-11.014z" stroke-miterlimit="4" fill="none" stroke="#f37637"/>
      <path id="svg_70" d="m21668.646493,-13871.227483c-7.311,-15.021 -12.715,-47.73 -9.218,-54.074c3.814,-6.008 3.497,-10.014 -0.318,-7.678c-7.63,5.008 -14.306,31.711 -15.577,61.084c-0.318,2.002 -3.497,4.006 -6.994,4.006c-5.723,0 -6.041,1.002 -2.862,4.674c2.544,3.338 9.856,5.006 22.572,5.006l18.756,-0.334l-6.359,-12.684z" stroke-miterlimit="4" fill="none" stroke="#f37637"/>
      <path id="svg_69" d="m21517.522493,-13341.313483l3.854,0c5.039,0 8.729,0.252 11.071,0.757c2.341,0.505 4.251,1.693 5.73,3.563c1.479,1.871 2.22,4.271 2.22,7.201c0,2.668 -0.708,4.906 -2.122,6.712c-1.414,1.807 -3.235,3.011 -5.463,3.613c-2.228,0.602 -5.373,0.903 -9.438,0.903l-5.853,0l0,-22.749l0.001,0zm0,31.125l6.387,0c4.875,0 8.279,0.855 10.213,2.568c1.934,1.712 2.9,4.231 2.9,7.558c0,6.457 -4.371,9.687 -13.113,9.687l-6.387,0l0,-19.813zm-10.25,-31.125l0,50.937l-8.375,0l0,8.5l22.601,0c6.216,0 10.878,-0.375 13.985,-1.124c3.107,-0.75 5.85,-2.647 8.226,-5.694c2.375,-3.047 3.563,-6.623 3.563,-10.729c0,-3.16 -0.708,-6.012 -2.123,-8.553c-1.416,-2.542 -3.49,-4.465 -6.223,-5.768c3.781,-1.302 6.69,-3.458 8.728,-6.468c2.038,-3.01 3.056,-6.451 3.056,-10.322c0,-3.352 -0.758,-6.396 -2.271,-9.128c-1.514,-2.733 -3.524,-4.848 -6.03,-6.346c-2.507,-1.497 -5.25,-2.506 -8.229,-3.026c-2.979,-0.52 -7.04,-0.78 -12.184,-0.78l-23.099,0l0,8.5l8.375,0l0,0.001z" fill-rule="nonzero" fill="#f37637"/>
      <path id="svg_68" d="m21565.323493,-13341.563483l0,51.437l-8.375,0l0,8.25l17.625,0l0,-59.688l7.25,0l0,-8.25l-24.875,0l0,8.25l8.375,0l0,0.001z" fill-rule="nonzero" fill="#f37637"/>
      <path id="svg_67" d="m21618.772493,-13332.251483c-4.004,3.125 -8.056,4.688 -12.156,4.688c-2.571,0 -4.72,-0.749 -6.444,-2.247c-1.724,-1.498 -2.587,-3.436 -2.587,-5.813c0,-2.215 0.756,-4.07 2.27,-5.568c1.514,-1.498 3.572,-2.247 6.176,-2.247c4.491,0 8.738,1.889 12.742,5.667l0,5.52l-0.001,0zm17.125,-9.312l0,-8.25l-16.188,0l0,5.762c-4.492,-4.383 -9.504,-6.574 -15.036,-6.574c-4.297,0 -8.031,1.4 -11.204,4.202c-3.174,2.802 -4.76,6.386 -4.76,10.752c0,4.398 1.684,8.047 5.051,10.946c3.367,2.899 7.427,4.35 12.177,4.35c4.424,0 8.702,-1.335 12.835,-4.004l0,4.683c0,2.406 -0.229,4.26 -0.684,5.562c-0.456,1.3 -1.521,2.47 -3.197,3.511c-1.676,1.041 -3.864,1.562 -6.565,1.562c-4.654,0 -8.022,-1.854 -10.104,-5.563l-8.887,2.344c3.938,7.354 10.742,11.031 20.411,11.031c3.548,0 6.616,-0.48 9.204,-1.44c2.588,-0.96 4.518,-2.195 5.787,-3.709c1.269,-1.513 2.124,-3.147 2.563,-4.903c0.439,-1.759 0.659,-4.557 0.659,-8.396l0,-21.864l7.938,0l0,-0.002z" fill-rule="nonzero" fill="#f37637"/>
      <path id="svg_66" d="m21638.848493,-13349.813483l0,7.687l29.649,31.875l-19.399,0l0,-9.063l-7.938,0l0,16.75l38.313,0l0,-8.273l-29.696,-31.289l21.571,0l0,9.688l8.125,0l0,-17.375l-40.625,0z" fill-rule="nonzero" fill="#f37637"/>
      <path id="svg_65" d="m21725.133493,-13321.813483c-0.651,3.326 -2.377,6.335 -5.178,9.026c-2.801,2.69 -6.236,4.036 -10.307,4.036c-3.713,0 -6.888,-1.216 -9.525,-3.646c-2.639,-2.43 -4.25,-5.569 -4.836,-9.417l29.846,0l0,0.001zm9.563,-6.75l-39.75,0c0.586,-4.355 2.311,-7.882 5.176,-10.579c2.865,-2.697 6.527,-4.046 10.988,-4.046c6.479,0 11.605,2.604 15.383,7.813l8.203,-3.613c-2.67,-4.132 -6.137,-7.198 -10.4,-9.198c-4.265,-2 -8.725,-3.001 -13.379,-3.001c-7.227,0 -13.403,2.253 -18.53,6.761c-5.127,4.507 -7.69,10.584 -7.69,18.232c0,7.257 2.498,13.229 7.495,17.915c4.996,4.686 10.733,7.029 17.212,7.029c6.348,0 12.101,-2.289 17.261,-6.864c5.158,-4.578 7.835,-11.395 8.031,-20.449" fill-rule="nonzero" fill="#f37637"/>
      <path id="svg_64" d="m21750.145493,-13341.563483l0,30.75l-9.5,0l0,8.25l16.938,0l0,-10.645c1.041,2.767 2.488,5.062 4.342,6.886c1.854,1.821 3.813,3.029 5.879,3.621c2.066,0.592 4.887,0.888 8.465,0.888l2.44,0l0,-9.375l-1.859,0c-4.727,0 -8.255,-0.473 -10.585,-1.416c-2.33,-0.944 -4.058,-2.662 -5.183,-5.152c-1.125,-2.49 -1.687,-6.959 -1.687,-13.405l0,-10.401l10.314,0l0,-8.25l-29.064,0l0,8.25l9.5,0l0,-0.001z" fill-rule="nonzero" fill="#f37637"/>
      <path id="svg_63" d="m21784.219493,-13349.813483l0,16.187l8.313,0l0,-1.563c0.292,-2.216 1.486,-4.04 3.584,-5.474c2.098,-1.434 4.577,-2.15 7.438,-2.15c2.991,0 5.381,0.521 7.17,1.563c1.788,1.042 2.683,2.491 2.683,4.349c0,1.791 -0.74,3.109 -2.22,3.957c-1.48,0.847 -4.416,1.625 -8.807,2.336c-6.506,1.099 -11.149,2.878 -13.929,5.34c-2.78,2.462 -4.17,5.649 -4.17,9.563c0,3.946 1.511,7.247 4.536,9.905c3.024,2.657 7.009,3.986 11.952,3.986c4.455,0 8.292,-0.926 11.512,-2.777l0,2.027l8.25,0l0,-15.688l-8.25,0l0,2.9c-2.504,3.899 -6.145,5.85 -10.924,5.85c-2.44,0 -4.447,-0.532 -6.023,-1.596c-1.577,-1.064 -2.365,-2.479 -2.365,-4.246c0,-1.802 0.724,-3.037 2.172,-3.707c1.447,-0.672 4.563,-1.383 9.345,-2.135c4.586,-0.719 8.051,-1.559 10.395,-2.519c2.343,-0.96 4.286,-2.554 5.833,-4.783c1.545,-2.23 2.318,-4.826 2.318,-7.787c0,-4.395 -1.684,-7.885 -5.051,-10.472c-3.367,-2.588 -7.735,-3.881 -13.103,-3.881c-5.044,0 -9.159,1.159 -12.347,3.475l0,-2.662l-8.312,0l0,0.002z" fill-rule="nonzero" fill="#f37637"/>
      <path id="svg_62" d="m21556.317493,-14114.051483l0,50.938l-14.063,0l0,-17.313l-8.375,0l0,25.813l55.063,0l0,-25.813l-8.375,0l0,17.313l-14,0l0,-50.938l8.813,0l0,-8.5l-27.75,0l0,8.5l8.687,0z" fill-rule="nonzero" fill="#f37637"/>
      <path id="svg_61" d="m21601.829493,-14114.301483l0,30.75l-9.5,0l0,8.25l16.938,0l0,-10.645c1.041,2.768 2.488,5.063 4.342,6.885c1.854,1.823 3.813,3.03 5.879,3.623c2.066,0.592 4.887,0.887 8.465,0.887l2.439,0l0,-9.375l-1.858,0c-4.727,0 -8.255,-0.473 -10.585,-1.416c-2.33,-0.943 -4.058,-2.662 -5.183,-5.152c-1.125,-2.491 -1.687,-6.959 -1.687,-13.405l0,-10.4l10.313,0l0,-8.25l-29.063,0l0,8.25l9.5,0l0,-0.002z" fill-rule="nonzero" fill="#f37637"/>
      <path id="svg_60" d="m21663.913493,-14104.988483c-4.004,3.125 -8.056,4.689 -12.156,4.689c-2.571,0 -4.72,-0.75 -6.444,-2.248c-1.724,-1.498 -2.587,-3.436 -2.587,-5.813c0,-2.214 0.756,-4.07 2.27,-5.568c1.514,-1.498 3.572,-2.246 6.176,-2.246c4.491,0 8.738,1.889 12.742,5.666l0,5.52l-0.001,0zm17.125,-9.313l0,-8.25l-16.188,0l0,5.762c-4.492,-4.383 -9.504,-6.574 -15.036,-6.574c-4.297,0 -8.031,1.4 -11.204,4.203c-3.174,2.802 -4.76,6.386 -4.76,10.752c0,4.398 1.684,8.046 5.051,10.945c3.367,2.9 7.427,4.35 12.177,4.35c4.424,0 8.702,-1.334 12.835,-4.004l0,4.683c0,2.406 -0.229,4.26 -0.684,5.561c-0.456,1.301 -1.521,2.47 -3.197,3.511c-1.676,1.041 -3.864,1.563 -6.565,1.563c-4.654,0 -8.022,-1.854 -10.104,-5.563l-8.887,2.344c3.938,7.354 10.742,11.031 20.411,11.031c3.548,0 6.616,-0.48 9.204,-1.439c2.588,-0.961 4.518,-2.197 5.787,-3.709c1.269,-1.514 2.124,-3.148 2.563,-4.904c0.439,-1.758 0.659,-4.557 0.659,-8.395l0,-21.865l7.938,0l0,-0.002z" fill-rule="nonzero" fill="#f37637"/>
      <path id="svg_59" d="m21730.739493,-14075.301483l0,-17.875l-8.313,0c-0.424,3.408 -1.817,6.02 -4.181,7.838c-2.363,1.814 -5.109,2.725 -8.238,2.725c-4.172,0 -7.563,-1.471 -10.17,-4.415c-2.607,-2.941 -3.911,-6.804 -3.911,-11.584c0,-4.455 1.238,-8.38 3.715,-11.779c2.477,-3.398 6.062,-5.097 10.755,-5.097c6.518,0 11.243,3.083 14.177,9.25l7.666,-3.612c-4.235,-9.385 -11.646,-14.074 -22.234,-14.074c-7.493,0 -13.39,2.555 -17.69,7.664c-4.3,5.107 -6.45,10.998 -6.45,17.67c0,7.127 2.345,13.01 7.038,17.646c4.692,4.637 10.102,6.956 16.229,6.956c5.246,0 9.679,-1.547 13.296,-4.639l0,3.326l8.311,0z" fill-rule="nonzero" fill="#f37637"/>
      <path id="svg_58" d="m21745.401493,-14114.301483l0,51.438l-8.5,0l0,8.25l17.75,0l0,-42.458l17.676,14.083l-7.863,0l0,7.689l26.125,0l0,-7.689l-7.227,0l-17.725,-14.717l16.65,-16.596l8.301,0l0,-8.25l-12.158,0l-23.779,23.771l0,-15.521l8.125,0l0,-8.25l-25.875,0l0,8.25l8.5,0z" fill-rule="nonzero" fill="#f37637"/>
     </g>
    </g>
   </g>
  </g>
 </g>
</svg>